<svg width="366" height="65" viewBox="0 0 366 65" fill="none" xmlns="http://www.w3.org/2000/svg">
<path d="M3.37103 17.9347C8.50294 7.66773 18.6291 0.871805 30.0087 0.0574635C30.3365 0.0340217 38.4587 0.0114614 48.058 0.00741619L65.5113 0V1.01028V2.02061L47.7729 2.03808C28.6162 2.05696 29.881 2.03948 28.0133 2.3114C23.5864 2.95594 19.3607 4.56746 15.6522 7.02542C8.78488 11.5771 3.98214 18.7944 2.51933 26.7609C2.10993 28.9905 2.02131 30.2185 2.02131 33.6627V36.4073H1.01066H0L0.000455524 33.6456C0.000714667 32.1267 0.0237905 30.5572 0.0517779 30.1579C0.355441 25.8237 1.45902 21.7599 3.37103 17.9347Z" fill="white"/>
<path d="M19.9281 6.89801C23.2527 5.26923 26.6543 4.36039 30.4752 4.08013C30.6034 4.07074 31.0758 4.05897 31.5247 4.05399L32.341 4.04492V5.04824V6.05157L31.2915 6.08388C24.2432 6.30108 17.3592 9.58329 12.6156 14.9884C9.28153 18.7874 7.07742 23.493 6.34876 28.3674C6.089 30.1053 5.98844 32.5964 6.11257 34.2188C6.54358 39.8509 8.59559 44.897 12.2333 49.2701C12.9244 50.1011 14.6126 51.7905 15.4425 52.4817C18.9311 55.3873 22.9669 57.3197 27.301 58.1597C28.9405 58.4775 30.2055 58.6052 31.9523 58.6294C33.4092 58.6496 34.2322 58.6079 35.5349 58.4483C39.5385 57.9576 43.35 56.5527 46.7422 54.3176C53.2014 50.0616 57.482 43.1792 58.4101 35.5578C58.5728 34.2216 58.6176 33.1664 58.6178 30.6633L58.6181 28.3165H59.6343H60.6504L60.6247 31.2597C60.594 34.7711 60.5068 35.826 60.0684 37.9936C59.1322 42.6228 57.098 46.8277 53.9743 50.5913C53.2673 51.4431 51.4322 53.2823 50.5875 53.9855C47.7039 56.3862 44.6136 58.1177 41.1977 59.2465C36.0377 60.9516 30.5226 61.1301 25.1887 59.7646C24.155 59.5 22.3312 58.8752 21.2728 58.4232C13.0732 54.9209 6.96578 47.7523 4.84905 39.1456C4.23079 36.6317 4.01021 34.5838 4.05743 31.7974C4.09469 29.602 4.28089 28.0192 4.73854 26.0086C5.73426 21.634 7.7884 17.5463 10.7716 14.0025C11.4728 13.1695 13.1613 11.48 13.9937 10.7783C15.8843 9.18467 17.7478 7.96622 19.9281 6.89801Z" fill="white"/>
<path d="M32.3411 10.0967V9.08543V8.07422L33.3388 8.10564C38.5809 8.27072 43.7757 10.2866 47.9411 13.7721C49.0248 14.6789 50.5226 16.2283 51.3976 17.3474C54.6135 21.4608 56.3572 26.2241 56.5757 31.4929L56.6117 32.3615H55.6013H54.5909L54.5551 31.5706C54.4571 29.4049 54.0901 27.3443 53.463 25.4379C51.4643 19.3614 46.8994 14.3848 41.0224 11.8749C38.5958 10.8385 35.8181 10.2112 33.287 10.1278L32.3411 10.0967Z" fill="white"/>
<path d="M14.2002 23.4021C17.3119 17.0901 23.5553 12.8038 30.527 12.1932C31.2523 12.1296 33.3653 12.1279 34.0513 12.1903C37.8922 12.5396 41.3372 13.8518 44.3992 16.132C48.4859 19.1751 51.3003 23.695 52.2124 28.6798C52.4509 29.9833 52.5218 30.8263 52.5224 32.362C52.5231 34.2701 52.3703 35.5477 51.9332 37.289C50.4846 43.0594 46.5505 47.905 41.1778 50.5364C38.6685 51.7654 36.0163 52.4328 33.1055 52.5679L32.341 52.6034V51.5918V50.5803L33.0277 50.5449C37.7847 50.2993 41.8727 48.4998 45.1705 45.1999C47.025 43.3441 48.3353 41.3478 49.2816 38.9363C50.1232 36.7915 50.5 34.7623 50.5023 32.362C50.5039 30.7686 50.3741 29.5949 50.0408 28.1871C49.3765 25.3808 47.9298 22.5601 46.0643 20.4337C43.0622 17.012 39.1443 14.9066 34.6215 14.285C33.7951 14.1714 31.7465 14.1293 30.8256 14.207C26.6452 14.5597 22.7628 16.3242 19.7119 19.2581C17.6169 21.2727 15.9787 23.8673 15.0566 26.6313C14.5172 28.2479 14.1499 30.3635 14.1493 31.8564L14.1492 32.362H13.1385H12.1279L12.1284 31.8045C12.13 30.072 12.5328 27.7699 13.1563 25.9288C13.5037 24.9032 13.7289 24.3582 14.2002 23.4021Z" fill="white"/>
<path d="M58.6182 22.2492V21.2379V20.2266H59.6288H60.6395V21.2379V22.2492H59.6288H58.6182Z" fill="white"/>
<path d="M23.9448 24.9547C23.9448 23.5047 23.962 22.3012 23.983 22.2801C24.004 22.2591 26.5287 22.2516 29.5934 22.2634C35.6328 22.2868 35.6136 22.2859 36.8708 22.5844C40.3558 23.4117 42.2732 25.7951 41.9812 28.9368C41.9155 29.6431 41.8361 30.0102 41.6225 30.596C41.1118 31.9962 40.0313 33.117 38.4189 33.919C38.123 34.0661 37.9449 34.1815 37.9903 34.1965C39.5718 34.7191 40.0657 34.9349 40.8354 35.4395C42.1846 36.3241 42.9915 37.473 43.2819 38.9229C43.3893 39.4594 43.3746 40.8279 43.2554 41.3864C42.6508 44.2193 40.3736 46.0352 36.6687 46.639C36.0152 46.7456 35.8139 46.7494 29.9698 46.7669L23.9448 46.7849V45.9562V45.1276L29.8144 45.1063C36.0888 45.0836 36.1001 45.0832 37.2199 44.8164C39.9346 44.1698 41.5147 42.4209 41.5147 40.0628C41.5147 37.7653 39.993 36.1822 37.1979 35.5718C35.9444 35.298 36.0241 35.3016 30.7214 35.2806L25.7588 35.2609V37.1827V39.1044H24.8513H23.9438L23.9573 36.3428L23.9707 33.5811L29.5941 33.552C35.0623 33.5238 35.2312 33.5199 35.7151 33.4138C35.9889 33.3537 36.4256 33.2333 36.6855 33.1461C38.4458 32.5559 39.628 31.3495 40.02 29.7433C40.1793 29.0905 40.1796 27.9549 40.0207 27.3687C39.514 25.4997 37.813 24.3125 35.2154 24.0148C34.9329 23.9823 32.9902 23.9613 30.2549 23.9611L25.7588 23.9607V25.7758V27.591H24.8518H23.9448V24.9547Z" fill="white"/>
<path d="M58.6182 26.2942V25.2829V24.2715H59.6288H60.6395V25.2829V26.2942H59.6288H58.6182Z" fill="white"/>
<path d="M62.6606 30.339V29.3277V28.3164H63.6712H64.6819V29.3277V30.339H63.6712H62.6606Z" fill="white"/>
<path d="M23.9448 31.5323V30.5728V29.6133H24.8518H25.7588V30.5728V31.5323H24.8518H23.9448Z" fill="white"/>
<path d="M62.0882 38.1834C62.4053 36.5842 62.6505 34.2438 62.6587 32.7374L62.6608 32.3613H63.6794H64.6981L64.6625 33.3338C64.5638 36.0304 64.2054 38.4381 63.5401 40.8734C60.1396 53.3202 49.5652 62.6356 36.8243 64.4085C34.6689 64.7084 35.8217 64.6904 17.5829 64.709L0.829346 64.726V63.7134V62.7008L16.9869 62.7005C32.6281 62.7003 33.9341 62.6891 35.3731 62.5428C43.8021 61.6863 51.4382 57.357 56.5914 50.5131C57.759 48.9625 58.606 47.5777 59.5257 45.7159C60.7462 43.2451 61.557 40.8619 62.0882 38.1834Z" fill="white"/>
<path d="M12.1797 35.8371V34.8258V33.8145H13.1904H14.201V34.8258V35.8371H13.1904H12.1797Z" fill="white"/>
<path d="M16.0669 35.8371V34.8258V33.8145H17.0776H18.0883V34.8258V35.8371H17.0776H16.0669Z" fill="white"/>
<path d="M20.0576 35.8371V34.8258V33.8145H21.0683H22.079V34.8258V35.8371H21.0683H20.0576Z" fill="white"/>
<path d="M0 40.4524V39.441V38.4297H0.998003H1.99606V39.441V40.4524H0.998003H0Z" fill="white"/>
<path d="M23.9706 43.0718L23.9565 42.0994L23.9424 41.127H24.8505H25.7587V42.1136V43.1002L24.8646 43.086L23.9706 43.0718Z" fill="white"/>
<path d="M0 44.4972V43.4859V42.4746H0.998003H1.99606V43.4859V44.4972H0.998003H0Z" fill="white"/>
<path d="M0 48.6985V47.6871V46.6758H0.998003H1.99606V47.6871V48.6985H0.998003H0Z" fill="white"/>
<path fill-rule="evenodd" clip-rule="evenodd" d="M133.315 7.75287C130.576 8.13077 128.17 9.38608 126.55 11.2827C124.502 13.6799 123.496 16.5574 123.495 20.0227C123.495 21.4008 123.606 22.449 123.867 23.5208C124.876 27.6602 127.522 30.6828 131.186 31.8815C132.695 32.3751 134.541 32.583 136.222 32.4484C137.975 32.308 139.237 31.9796 140.629 31.3019C143.912 29.7025 146.078 26.6873 146.786 22.7289C146.966 21.7225 147.033 19.4936 146.917 18.3768C146.363 13.0568 143.033 9.05803 138.24 7.95814C136.891 7.64855 134.725 7.55827 133.315 7.75287ZM203.842 7.6887C203.748 7.70481 203.439 7.75101 203.155 7.7913C199.869 8.2592 197.056 10.1637 195.345 13.0776C193.962 15.4345 193.333 18.4755 193.612 21.455C194.085 26.4975 196.952 30.4382 201.176 31.849C203.733 32.7034 206.783 32.7041 209.38 31.851C213.191 30.5995 215.938 27.359 216.784 23.1177C217.429 19.8853 217.034 16.47 215.709 13.8183C214.613 11.6249 212.951 9.93805 210.847 8.88182C209.754 8.33308 208.947 8.06715 207.585 7.80713C207.06 7.70708 204.255 7.61832 203.842 7.6887ZM82.7715 20.0128V31.9636L89.4156 31.9367C95.8459 31.9108 96.084 31.9052 96.8151 31.7638C99.0529 31.3306 100.823 30.2674 101.824 28.7556C103.291 26.5401 103.313 23.2186 101.876 21.0966C101.362 20.3372 100.33 19.4527 99.6072 19.1527C99.4879 19.1032 99.3904 19.0431 99.3904 19.0194C99.3905 18.9956 99.5527 18.8857 99.751 18.7751C100.292 18.4735 101.168 17.5556 101.465 16.9791C101.942 16.0527 102.116 14.999 101.997 13.7494C101.866 12.3547 101.411 11.3028 100.53 10.3544C99.7393 9.50321 98.7094 8.87293 97.5341 8.52106C96.0862 8.08766 95.5932 8.06198 88.7289 8.06191L82.7715 8.06184V20.0128ZM105.708 20.009V31.9561H114.121H122.535L122.517 29.1501L122.499 26.344L117.331 26.3264L112.164 26.3087V17.1853V8.06184H108.936H105.708V20.009ZM146.706 8.08987C146.706 8.10536 148.328 10.6656 150.31 13.7792C152.298 16.902 153.893 19.4754 153.868 19.5182C153.842 19.5609 152.068 22.3771 149.926 25.7766L146.031 31.9573L149.737 31.9395L153.444 31.9217L155.532 28.2781C156.68 26.2741 157.648 24.6069 157.681 24.5731C157.717 24.5372 158.593 26.0544 159.796 28.2336L161.848 31.9555L165.678 31.9558L169.507 31.9561L169.345 31.6979C168.891 30.9754 162.268 20.4127 161.969 19.9346L161.622 19.3782L165.151 13.7372L168.679 8.09627L165.164 8.07844C162.407 8.06446 161.632 8.07926 161.569 8.14729C161.526 8.19495 160.696 9.58653 159.725 11.2396C158.754 12.8927 157.923 14.2927 157.878 14.3506C157.811 14.4377 157.478 13.9035 155.949 11.2589L154.102 8.06184H150.404C148.37 8.06184 146.706 8.07444 146.706 8.08987ZM171.428 20.0047V31.9561H174.69H177.952V27.8575V23.7589L179.306 23.7776L180.659 23.7962L182.99 27.8762L185.322 31.9561H188.958C192.036 31.9561 192.589 31.9413 192.558 31.8602C192.538 31.8076 191.325 29.7547 189.863 27.2983C188.401 24.8419 187.193 22.8124 187.18 22.7881C187.167 22.7639 187.257 22.6957 187.381 22.6367C187.817 22.4295 188.635 21.8547 189.071 21.4503C191.012 19.6475 191.738 16.7275 190.969 13.8116C190.76 13.0199 190.468 12.3729 190.007 11.6781C188.772 9.81845 187.038 8.72427 184.579 8.25375C183.854 8.11507 183.572 8.10805 177.626 8.08126L171.428 8.0533V20.0047ZM219.724 16.5832C219.747 24.9332 219.751 25.1178 219.892 25.7612C220.715 29.519 223.058 31.5578 227.303 32.2094C228.368 32.373 231.066 32.373 232.098 32.2095C234.484 31.8312 236.108 31.0843 237.427 29.7582C238.625 28.5542 239.299 27.1424 239.585 25.2397C239.673 24.6588 239.689 23.2895 239.689 16.3078V8.06184H236.463H233.237L233.218 16.3078L233.2 24.5537L233.045 24.9669C232.708 25.8618 232.123 26.4535 231.253 26.777C230.651 27.0008 229.331 27.0649 228.588 26.9065C227.288 26.6293 226.518 25.8883 226.26 24.666C226.18 24.2888 226.163 22.8052 226.162 16.1356L226.161 8.06184H222.931H219.701L219.724 16.5832ZM242.23 10.8851V13.7083H245.595H248.96V22.8322V31.9561H252.188H255.415V22.8322V13.7083H258.78H262.145V10.8851V8.06184H252.188H242.23V10.8851ZM264.824 20.009V31.9561H274.026H283.228V29.1329V26.3096H277.254H271.279V24.2438V22.178H276.326H281.374V19.5614V16.9447H276.326H271.279V15.2577V13.5706H277.151H283.022V10.8162V8.06184H273.923H264.824V20.009ZM136.844 13.2534C137.558 13.4971 137.917 13.7157 138.481 14.2491C139.837 15.5316 140.559 17.8804 140.433 20.5943C140.319 23.036 139.669 24.7382 138.401 25.9155C137.899 26.3816 137.046 26.8222 136.371 26.9638C135.745 27.0951 134.757 27.0942 134.129 26.9617C131.473 26.4015 129.873 23.5016 130.044 19.5614C130.177 16.5075 131.299 14.3203 133.187 13.4342C133.887 13.106 134.386 13.0187 135.409 13.0453C136.159 13.0647 136.389 13.0981 136.844 13.2534ZM206.486 13.1229C207.285 13.2906 208.052 13.717 208.649 14.3261C209.278 14.9678 209.684 15.6637 210.032 16.6963C210.371 17.6997 210.503 18.6484 210.503 20.0645C210.503 21.8851 210.27 23.0824 209.684 24.2767C208.73 26.2178 207.198 27.1419 205.086 27.0508C203.419 26.9789 202.206 26.2683 201.284 24.8233C200.487 23.5758 200.133 22.1085 200.134 20.0557C200.135 17.4449 200.806 15.4881 202.134 14.2208C202.77 13.6141 203.443 13.2687 204.328 13.0946C204.816 12.9986 205.965 13.0137 206.486 13.1229ZM94.2654 13.4429C95.1915 13.6294 95.7413 14.216 95.8033 15.0833C95.8533 15.7842 95.7329 16.1448 95.3081 16.566C94.6983 17.1708 94.6639 17.1768 91.7161 17.2049L89.1581 17.2292V15.2966V13.364H91.5158C93.0138 13.364 94.0165 13.3928 94.2654 13.4429ZM182.838 13.7388C183.936 13.9723 184.491 14.4973 184.685 15.4866C184.922 16.695 184.433 17.799 183.472 18.2254C182.894 18.4817 182.384 18.5274 180.098 18.5279L177.952 18.5285V16.084V13.6395L180.167 13.6406C181.806 13.6415 182.5 13.6671 182.838 13.7388ZM94.406 21.9054C95.3177 22.0375 96.0603 22.5292 96.3316 23.1804C96.5121 23.6136 96.5822 24.2464 96.4998 24.698C96.3519 25.5078 95.8818 26.0936 95.1381 26.3949C94.7658 26.5457 94.6757 26.5506 91.9565 26.5711L89.1581 26.5922V24.2588C89.1581 22.9756 89.1787 21.9049 89.2039 21.8797C89.2768 21.8065 93.8811 21.8293 94.406 21.9054ZM207.716 43.8675C206.013 44.1095 204.755 45.1182 204.469 46.4716C204.152 47.9694 204.89 49.3514 206.406 50.1021C207.037 50.4146 207.546 50.5573 208.932 50.8104C209.858 50.9796 210.444 51.2604 210.917 51.7616C211.428 52.3034 211.564 52.6487 211.563 53.4058C211.562 54.1755 211.395 54.6024 210.918 55.0496C210.317 55.6128 209.634 55.8503 208.613 55.8503C207.793 55.8503 207.282 55.7504 206.681 55.4729C206.116 55.2113 205.635 54.797 205.312 54.294C205.033 53.8588 204.774 53.7305 204.399 53.8429C204.14 53.9208 203.979 54.1318 203.979 54.3944C203.979 54.5856 204.437 55.3017 204.79 55.6639C205.459 56.3485 206.479 56.8476 207.568 57.0231C208.219 57.1278 209.481 57.0766 210.045 56.9226C210.943 56.6775 211.702 56.1854 212.189 55.5323C212.651 54.9132 212.783 54.5046 212.821 53.5762C212.874 52.2876 212.601 51.5401 211.803 50.7965C211.121 50.1614 210.213 49.8149 208.36 49.4837C207.15 49.2673 206.343 48.8316 205.939 48.1768C205.747 47.8658 205.731 47.79 205.731 47.214C205.731 46.5037 205.823 46.2459 206.229 45.8267C206.857 45.179 208.258 44.8759 209.389 45.1432C210.192 45.3332 210.833 45.7611 211.273 46.4023C211.622 46.9113 212.132 47.0166 212.427 46.6406C212.632 46.3791 212.596 46.136 212.278 45.6599C211.778 44.9089 210.79 44.2222 209.851 43.9733C209.348 43.8399 208.282 43.787 207.716 43.8675ZM151.348 44.2184L151.17 44.4302V50.4191C151.17 56.923 151.156 56.692 151.546 56.8698C151.791 56.9818 158.877 56.9876 159.196 56.876C159.461 56.7834 159.548 56.634 159.548 56.273C159.548 56.058 159.509 55.9669 159.367 55.8554C159.19 55.7154 159.121 55.7126 155.83 55.7126H152.475V50.096C152.475 45.958 152.454 44.4399 152.395 44.329C152.269 44.0932 152.12 44.011 151.811 44.0087C151.575 44.0069 151.495 44.0433 151.348 44.2184ZM172.025 44.1614C171.94 44.2482 170.774 46.9349 169.377 50.2659C166.921 56.1183 166.882 56.2198 166.959 56.4801C167.094 56.9316 167.716 57.0977 168.012 56.7613C168.07 56.6959 168.374 56.0147 168.688 55.2478L169.259 53.8534H172.457H175.655L176.235 55.2677C176.554 56.0456 176.864 56.727 176.924 56.7819C177.312 57.1337 178.022 56.8347 178.021 56.3197C178.02 56.0631 173.03 44.2649 172.863 44.127C172.651 43.9509 172.215 43.9688 172.025 44.1614ZM186.717 44.1492L186.536 44.2919V50.4378V56.5838L186.714 56.7507L186.891 56.9177L189.295 56.9374C192.076 56.9603 192.568 56.9086 193.376 56.5079C194.522 55.9399 195.216 54.9589 195.394 53.6543C195.611 52.0665 194.978 50.8148 193.623 50.1538L193.06 49.8792L193.429 49.6335C195.29 48.3948 195.063 45.5293 193.018 44.439C192.251 44.0299 192.052 44.0065 189.347 44.0065C186.974 44.0065 186.893 44.0109 186.717 44.1492ZM192.305 45.4583C193.061 45.8136 193.427 46.383 193.432 47.2085C193.438 48.1374 193.044 48.7858 192.247 49.1606L191.859 49.3431L189.816 49.3641L187.773 49.3851V47.3118V45.2385L189.85 45.2595C191.92 45.2803 191.929 45.281 192.305 45.4583ZM173.826 52.7359C173.074 52.7461 171.845 52.7461 171.096 52.7359L169.734 52.7172L171.026 49.5841C171.737 47.8609 172.353 46.3749 172.394 46.2819C172.461 46.1307 172.612 46.461 173.831 49.415L175.194 52.7172L173.826 52.7359ZM192.056 50.6901C192.645 50.7993 193.025 50.9884 193.434 51.3765C193.975 51.8897 194.125 52.2711 194.124 53.1304C194.123 53.7279 194.099 53.8702 193.943 54.206C193.576 54.9954 192.872 55.5071 191.959 55.648C191.715 55.6856 190.681 55.7079 189.661 55.6973L187.807 55.6782L187.789 53.234C187.779 51.8897 187.786 50.751 187.804 50.7034C187.846 50.5924 191.468 50.5811 192.056 50.6901Z" fill="white"/>
</svg>
